<svg width="2527" height="806" viewBox="0 0 2527 806" fill="none" xmlns="http://www.w3.org/2000/svg">
<path d="M228 434.492L220.872 454.916M228 434.492C232.945 424.105 237.203 419.079 250.5 413.15M228 434.492H293.008C301.147 434.492 306.016 443.546 301.528 450.335V450.335C299.637 453.196 296.437 454.916 293.008 454.916H220.872M399.5 368.416C314.019 383.203 270.738 391.95 250.5 413.15M370.5 607.416H188.332C177.231 607.416 169.504 596.389 173.292 585.956L196 523.416M753.5 314.916C909.203 233.963 999.524 198.184 1173 173.416M1173 173.416C1303.38 152.597 1376.62 153.127 1507 173.416M1173 173.416C1029.5 226.018 952.041 259.735 865.194 307.708C850.914 315.596 856.621 336.916 872.935 336.916H904.5M1507 173.416L1999.5 258.916M1507 173.416L1760.5 280.916M1760.5 280.916H1887.5M1760.5 280.916L1151 314.916M2363 173.416L2142.66 161.87C2137.26 161.587 2132.08 164.055 2128.89 168.43L2076.17 240.835C2069.71 249.702 2073.89 262.29 2084.37 265.537L2100.78 270.623C2113.84 274.669 2116.14 292.164 2104.57 299.446L2083.4 312.776C2081.17 314.181 2078.62 315.013 2075.99 315.197L1916 326.416M1916 326.416L2026.5 379.416M1916 326.416C1876.96 319.771 1860.71 314.484 1789.37 314.417C1788.48 314.416 1787.54 314.495 1786.65 314.645C1719.7 325.977 1692.23 328.901 1655 358.916M1538.5 336.916L646.086 380.667C642.777 380.829 639.495 379.953 636.694 378.184C600.615 355.402 576.912 343.703 527.985 351.185C527.009 351.334 526.012 351.59 525.082 351.923C460.251 375.161 435.386 391.007 401.955 419.793C400.336 421.187 399.017 422.907 398.066 424.82C383.238 454.644 371.632 471.601 343.864 495.992C341.677 497.913 338.983 499.173 336.114 499.66L196 523.416M196 523.416L220.872 454.916M250.5 413.15H320.574C332.938 413.15 340.63 426.576 334.378 437.242L316.636 467.508C313.764 472.407 308.511 475.416 302.833 475.416H255.496C252.243 475.416 249.067 474.425 246.392 472.574L220.872 454.916" stroke="#E32900" stroke-width="16" stroke-linecap="round"/>
<path d="M636.502 429.416C611.568 395.459 571.358 373.416 526 373.416C463.224 373.416 410.309 415.639 394.106 473.236C391.041 484.128 401.534 493.031 412.413 489.918L500.719 464.643C505.612 463.243 510.878 464.254 514.905 467.365L545.144 490.732C549.692 494.246 552.006 499.93 551.205 505.622L544.283 554.801C543.489 560.444 539.753 565.239 534.475 567.389L454.162 600.104C443.424 604.478 440.893 618.404 450.567 624.797C472.201 639.093 498.129 647.416 526 647.416C572.906 647.416 614.306 623.844 639 587.899M636.502 429.416C653.161 452.104 663 480.111 663 510.416C663 539.174 654.14 565.862 639 587.899M636.502 429.416L703.112 460.819C705.341 461.87 707.782 462.391 710.245 462.344L1579.95 445.485C1582.29 445.44 1584.59 444.882 1586.69 443.852L1661 407.384M1661 407.384C1645.77 428.391 1637 453.046 1637 479.416C1637 513.516 1651.66 544.748 1676 568.931M1661 407.384C1690.11 367.237 1742.81 340.416 1803 340.416C1894.68 340.416 1969 402.649 1969 479.416C1969 556.184 1894.68 618.416 1803 618.416C1752.04 618.416 1706.45 599.191 1676 568.931M639 587.899L719.945 558.349C721.636 557.732 723.42 557.404 725.22 557.38L1588.76 545.946C1590.25 545.926 1591.73 546.113 1593.16 546.501L1676 568.931M1930.69 478.062C1930.69 537.134 1874.84 585.02 1805.95 585.02C1737.05 585.02 1681.2 537.134 1681.2 478.062C1681.2 418.991 1737.05 371.105 1805.95 371.105C1874.84 371.105 1930.69 418.991 1930.69 478.062ZM732.184 500.625L738.067 489.671C740.805 484.573 746.082 481.35 751.868 481.244L1548.15 466.588C1553.93 466.482 1559.31 469.496 1562.24 474.473L1568.19 484.594C1570.89 489.173 1571.13 494.79 1568.85 499.586L1561.78 514.425C1559.16 519.93 1553.64 523.466 1547.54 523.545L751.945 533.795C746.118 533.87 740.711 530.771 737.831 525.705L732.371 516.104C729.651 511.32 729.58 505.474 732.184 500.625Z" stroke="#ACACAC" stroke-width="16"/>
<path d="M897.34 523.952C893.581 524.012 890.188 523.249 887.163 521.664C884.137 520.079 881.742 517.876 879.977 515.056C878.251 512.193 877.359 508.94 877.301 505.297C877.242 501.57 878.03 498.27 879.664 495.395C881.339 492.521 883.663 490.264 886.638 488.625C889.611 486.944 892.978 486.074 896.738 486.014C900.097 485.961 903.085 486.458 905.702 487.505C908.319 488.553 910.568 490.339 912.448 492.864L905.118 499.829C904.015 498.38 902.798 497.331 901.468 496.682C900.176 495.991 898.791 495.657 897.311 495.68C895.671 495.706 894.198 496.107 892.89 496.882C891.622 497.656 890.639 498.739 889.941 500.133C889.243 501.526 888.909 503.186 888.94 505.112C888.97 506.996 889.356 508.645 890.099 510.057C890.841 511.427 891.857 512.479 893.149 513.213C894.481 513.945 895.967 514.299 897.607 514.273C899.087 514.249 900.461 513.871 901.729 513.139C903.038 512.406 904.221 511.319 905.278 509.879L912.825 516.544C911.026 519.128 908.835 521.005 906.253 522.177C903.671 523.307 900.7 523.899 897.34 523.952Z" fill="#1100CF"/>
<path d="M946.564 510.919C946.601 513.222 945.994 515.305 944.743 517.168C943.533 519.03 941.716 520.525 939.294 521.652C936.871 522.78 933.86 523.372 930.261 523.429C927.381 523.475 924.556 523.185 921.786 522.559C919.055 521.89 916.801 521.004 915.023 519.902L918.724 511.11C920.381 512.173 922.254 513.001 924.344 513.596C926.473 514.149 928.597 514.408 930.717 514.375C932.437 514.347 933.613 514.098 934.246 513.628C934.878 513.157 935.19 512.649 935.182 512.105C935.17 511.393 934.802 510.854 934.076 510.489C933.389 510.081 932.444 509.761 931.24 509.529C930.076 509.296 928.792 509.044 927.388 508.773C926.023 508.502 924.637 508.147 923.23 507.708C921.822 507.228 920.532 506.599 919.36 505.822C918.187 505.045 917.231 504.013 916.49 502.726C915.75 501.44 915.364 499.812 915.332 497.844C915.296 495.541 915.923 493.479 917.214 491.657C918.505 489.794 920.362 488.319 922.785 487.234C925.247 486.105 928.198 485.514 931.638 485.459C933.877 485.424 936.161 485.639 938.489 486.104C940.816 486.57 942.889 487.333 944.706 488.393L941.305 497.18C939.689 496.159 938.037 495.452 936.351 495.06C934.664 494.668 933.001 494.485 931.361 494.511C929.722 494.537 928.525 494.786 927.773 495.259C927.06 495.731 926.71 496.323 926.721 497.035C926.732 497.705 927.08 498.223 927.766 498.589C928.492 498.955 929.437 499.275 930.601 499.549C931.765 499.782 933.049 500.034 934.454 500.305C935.898 500.533 937.303 500.867 938.67 501.306C940.077 501.744 941.367 502.352 942.54 503.129C943.712 503.906 944.668 504.917 945.408 506.162C946.148 507.407 946.533 508.992 946.564 510.919Z" fill="#1100CF"/>
<path d="M951.517 522.275L950.94 485.969L960.538 485.817L974.89 509.086L970.151 509.162L983.335 485.454L992.994 485.301L993.631 521.605L983.013 521.774L982.579 502.053L984.139 502.028L975.037 518.32L969.877 518.402L959.842 502.414L961.822 502.383L962.135 522.106L951.517 522.275Z" fill="#1100CF"/>
<path d="M1018.89 521.204L1018.31 484.899L1035.11 484.632C1038.39 484.579 1041.24 485.1 1043.66 486.192C1046.07 487.243 1047.94 488.763 1049.25 490.752C1050.6 492.741 1051.3 495.16 1051.35 498.007C1051.39 500.813 1050.77 503.252 1049.48 505.325C1048.24 507.397 1046.42 508.997 1044.04 510.123C1041.66 511.25 1038.82 511.84 1035.55 511.892L1025.17 512.057L1030.24 506.887L1030.47 521.02L1018.89 521.204ZM1030.27 508.206L1025.98 502.997L1034.56 502.86C1036.32 502.832 1037.63 502.414 1038.5 501.604C1039.37 500.753 1039.79 499.615 1039.77 498.191C1039.75 496.809 1039.29 495.728 1038.4 494.946C1037.5 494.122 1036.18 493.725 1034.42 493.753L1025.84 493.889L1029.95 488.546L1030.27 508.206Z" fill="#1100CF"/>
<path d="M1050.18 520.706L1065.02 484.156L1076.42 483.975L1092.42 520.035L1081.14 520.214L1068.89 489.686L1072.73 489.625L1061.28 520.53L1050.18 520.706ZM1059.26 514.154L1062.07 505.69L1078.2 505.434L1081.28 513.804L1059.26 514.154Z" fill="#1100CF"/>
<path d="M1095.52 519.986L1094.94 483.681L1106.52 483.497L1107.1 519.802L1095.52 519.986Z" fill="#1100CF"/>
<path d="M1114.91 519.678L1114.34 483.372L1123.88 483.221L1142.29 505.358L1137.97 505.426L1137.61 483.002L1148.95 482.822L1149.53 519.128L1139.99 519.279L1121.46 497.144L1125.9 497.074L1126.25 519.497L1114.91 519.678Z" fill="#1100CF"/>
<path d="M1164.05 518.897L1163.62 491.762L1153.18 491.928L1153.03 482.757L1185.49 482.241L1185.64 491.412L1175.2 491.578L1175.63 518.713L1164.05 518.897Z" fill="#1100CF"/>
<path d="M1220.15 518.822C1217.39 518.866 1214.86 518.445 1212.57 517.56C1210.31 516.675 1208.51 515.405 1207.17 513.751C1205.82 512.097 1205.13 510.202 1205.1 508.066C1205.05 505.344 1205.96 502.964 1207.8 500.924C1209.65 498.884 1212.62 497.056 1216.72 495.442C1218.43 494.744 1219.76 494.116 1220.71 493.556C1221.7 492.996 1222.39 492.461 1222.78 491.953C1223.21 491.401 1223.43 490.874 1223.42 490.372C1223.41 489.786 1223.2 489.286 1222.79 488.874C1222.43 488.461 1221.84 488.261 1221.04 488.273C1220.16 488.287 1219.49 488.549 1219.02 489.06C1218.58 489.527 1218.37 490.075 1218.38 490.703C1218.39 491.289 1218.64 491.872 1219.13 492.45C1219.66 493.028 1220.69 493.996 1222.24 495.354L1241.09 511.389L1235.27 518.456L1213.61 499.826C1211.94 498.387 1210.7 496.94 1209.88 495.488C1209.09 493.992 1208.69 492.491 1208.67 490.983C1208.63 489.057 1209.11 487.353 1210.08 485.872C1211.1 484.389 1212.5 483.236 1214.29 482.412C1216.12 481.545 1218.27 481.092 1220.75 481.053C1224.19 480.998 1226.96 481.771 1229.07 483.371C1231.21 484.97 1232.31 487.194 1232.35 490.041C1232.38 491.674 1232 493.188 1231.23 494.583C1230.45 495.977 1229.25 497.253 1227.63 498.41C1226 499.524 1223.92 500.563 1221.37 501.525C1219.98 502.091 1218.85 502.675 1217.98 503.275C1217.15 503.833 1216.54 504.429 1216.15 505.063C1215.76 505.656 1215.57 506.329 1215.58 507.083C1215.6 507.962 1216.03 508.751 1216.88 509.45C1217.73 510.148 1219.02 510.484 1220.74 510.456C1222.42 510.43 1224.03 509.902 1225.57 508.872C1227.16 507.841 1228.53 506.395 1229.7 504.534C1230.91 502.63 1231.84 500.374 1232.48 497.767L1240.92 500.209C1240.17 503.781 1238.8 506.965 1236.81 509.761C1234.85 512.557 1232.45 514.752 1229.59 516.347C1226.74 517.942 1223.59 518.767 1220.15 518.822Z" fill="#1100CF"/>
<path d="M1263.31 517.319L1262.74 481.014L1281.45 480.716C1286.29 480.639 1289.87 481.483 1292.18 483.247C1294.52 485.011 1295.72 487.254 1295.76 489.976C1295.81 492.74 1294.84 495.038 1292.87 496.87C1290.9 498.661 1288.03 499.586 1284.27 499.645L1285.25 496.928C1289.01 496.869 1292 497.701 1294.23 499.424C1296.5 501.106 1297.66 503.537 1297.71 506.72C1297.76 509.861 1296.52 512.351 1293.99 514.193C1291.5 515.992 1287.83 516.929 1282.99 517.006L1263.31 517.319ZM1274.58 508.91L1282.02 508.791C1283.34 508.77 1284.36 508.482 1285.07 507.926C1285.78 507.37 1286.13 506.59 1286.11 505.585C1286.09 504.538 1285.72 503.769 1284.99 503.278C1284.26 502.745 1283.24 502.489 1281.92 502.51L1273.52 502.644L1273.4 495.043L1280.18 494.936C1281.54 494.914 1282.56 494.647 1283.23 494.133C1283.9 493.62 1284.23 492.882 1284.21 491.919C1284.2 490.914 1283.84 490.165 1283.16 489.674C1282.47 489.182 1281.44 488.947 1280.08 488.968L1274.27 489.061L1274.58 508.91Z" fill="#1100CF"/>
<path d="M1321.04 517.218C1317.24 517.279 1313.83 516.516 1310.8 514.931C1307.78 513.345 1305.38 511.143 1303.62 508.322C1301.85 505.46 1300.94 502.208 1300.88 498.565C1300.82 494.88 1301.63 491.6 1303.3 488.725C1304.98 485.85 1307.3 483.572 1310.28 481.892C1313.25 480.211 1316.64 479.34 1320.44 479.28C1324.24 479.22 1327.65 479.982 1330.67 481.568C1333.7 483.153 1336.1 485.356 1337.86 488.176C1339.63 490.996 1340.54 494.249 1340.6 497.934C1340.65 501.577 1339.85 504.857 1338.17 507.773C1336.5 510.648 1334.17 512.926 1331.2 514.607C1328.23 516.287 1324.84 517.158 1321.04 517.218ZM1320.89 507.545C1322.49 507.52 1323.88 507.1 1325.07 506.285C1326.29 505.47 1327.24 504.366 1327.89 502.973C1328.59 501.538 1328.93 499.92 1328.9 498.119C1328.87 496.277 1328.48 494.671 1327.74 493.3C1327.04 491.929 1326.06 490.856 1324.81 490.08C1323.6 489.303 1322.19 488.928 1320.59 488.953C1319.03 488.978 1317.64 489.398 1316.41 490.213C1315.18 490.987 1314.22 492.091 1313.52 493.526C1312.83 494.961 1312.49 496.579 1312.52 498.38C1312.55 500.18 1312.93 501.787 1313.68 503.199C1314.42 504.57 1315.42 505.643 1316.67 506.419C1317.92 507.195 1319.33 507.57 1320.89 507.545Z" fill="#1100CF"/>
<path d="M1346.51 515.997L1345.93 479.692L1363.09 479.419C1367.05 479.356 1370.54 480.033 1373.56 481.451C1376.62 482.869 1379 484.925 1380.68 487.621C1382.4 490.274 1383.29 493.485 1383.35 497.254C1383.41 501.023 1382.62 504.281 1380.99 507.03C1379.39 509.736 1377.08 511.846 1374.07 513.36C1371.09 514.873 1367.62 515.661 1363.66 515.724L1346.51 515.997ZM1357.94 506.579L1363.1 506.497C1364.86 506.469 1366.37 506.11 1367.64 505.42C1368.91 504.73 1369.89 503.709 1370.59 502.357C1371.33 501.005 1371.68 499.366 1371.65 497.44C1371.62 495.472 1371.22 493.845 1370.44 492.559C1369.7 491.23 1368.68 490.241 1367.39 489.591C1366.1 488.942 1364.57 488.631 1362.81 488.659L1357.65 488.741L1357.94 506.579Z" fill="#1100CF"/>
<path d="M1396.4 515.204L1396.15 499.501L1398.36 506.628L1381.9 479.12L1394.14 478.925L1405.48 497.97L1399 498.073L1409.74 478.677L1421.31 478.493L1405.74 506.511L1407.72 499.317L1407.97 515.02L1396.4 515.204Z" fill="#1100CF"/>
</svg>
